<?xml version="1.0" encoding="UTF-8"?>
<svg width="25px" height="28px" viewBox="0 0 25 28" version="1.1" xmlns="http://www.w3.org/2000/svg" xmlns:xlink="http://www.w3.org/1999/xlink">
    <title>css-3</title>
    <g id="Page-1" stroke="none" stroke-width="1" fill="none" fill-rule="evenodd">
        <g id="Skills" transform="translate(-956.000000, -694.000000)" fill="#262324" fill-rule="nonzero">
            <g id="Full-Stack" transform="translate(128.000000, 658.000000)">
                <path d="M852.670619,36.3891486 C852.448583,36.1414023 852.131888,36 851.800002,36 L829.168616,36 C828.83673,36 828.520035,36.1414023 828.297998,36.3891486 C828.075962,36.6368948 827.970786,36.9676127 828.007013,37.2971619 L830.580302,60.4626043 C830.631721,60.9335559 830.964776,61.327379 831.420536,61.4570952 L840.161771,63.954424 C840.266947,63.984808 840.375628,64 840.48314,64 C840.590653,64 840.699334,63.984808 840.804509,63.954424 L849.545745,61.4570952 C850.001504,61.327379 850.333391,60.9335559 850.385978,60.4626043 L852.960436,37.2971619 C852.997831,36.9676127 852.892656,36.6368948 852.670619,36.3891486 Z M846.930386,47.772621 L846.409184,56.2859766 L840.521705,58.2106845 L834.634225,56.2859766 L834.41102,52.2145242 L837.390987,52.2145242 L837.465778,54.0656093 L840.521705,55.1021703 L843.577631,54.0656093 L843.800836,50.7350584 L837.242573,50.7350584 L837.094159,47.7737896 L843.950419,47.7737896 L844.173624,44.8125209 L833.88865,44.8125209 L833.665444,41.8500835 L847.303174,41.8500835 L846.930386,47.772621 Z" id="css-3"></path>
            </g>
        </g>
    </g>
</svg>