<?xml version="1.0" encoding="UTF-8"?>
<svg width="36px" height="18px" viewBox="0 0 36 18" version="1.1" xmlns="http://www.w3.org/2000/svg" xmlns:xlink="http://www.w3.org/1999/xlink">
    <title>design-systems</title>
    <g id="Page-1" stroke="none" stroke-width="1" fill="none" fill-rule="evenodd">
        <g id="Skills" transform="translate(-158.000000, -1627.000000)" fill="#262324" fill-rule="nonzero">
            <g id="UX-Design" transform="translate(128.000000, 1390.000000)">
                <path d="M66,237 L30,237 L30,255 L66,255 L66,237 Z M34.5,244.5 L34.5,240 L37.5,240 L37.5,244.5 L34.5,244.5 Z M40.5,247.5 L40.5,240 L43.5,240 L43.5,247.5 L40.5,247.5 Z M46.5,244.5 L46.5,240 L49.5,240 L49.5,244.5 L46.5,244.5 Z M52.5,247.5 L52.5,240 L55.5,240 L55.5,247.5 L52.5,247.5 Z M58.5,244.5 L58.5,240 L61.5,240 L61.5,244.5 L58.5,244.5 Z" id="design-systems"></path>
            </g>
        </g>
    </g>
</svg>