<?xml version="1.0" encoding="UTF-8"?>
<svg width="28px" height="28px" viewBox="0 0 28 28" version="1.1" xmlns="http://www.w3.org/2000/svg" xmlns:xlink="http://www.w3.org/1999/xlink">
    <title>emotion</title>
    <g id="Page-1" stroke="none" stroke-width="1" fill="none" fill-rule="evenodd">
        <g id="Work" transform="translate(-954.000000, -1644.000000)" fill="#262324" fill-rule="nonzero">
            <g id="Project-Copy" transform="translate(128.000000, 1216.000000)">
                <g id="Full-Stack" transform="translate(394.000000, 294.000000)">
                    <path d="M458,134 C459.104569,134 460,134.895431 460,136 L460,160 C460,161.104569 459.104569,162 458,162 L434,162 C432.895431,162 432,161.104569 432,160 L432,136 C432,134.895431 432.895431,134 434,134 L458,134 Z M457.64373,146.09 L448.32,146.09 L448.32,159.597812 L457.625176,159.597812 L457.625176,157.09293 L451.576348,157.09293 L451.576348,153.873691 L456.697441,153.873691 L456.697441,151.452305 L451.576348,151.452305 L451.576348,148.60416 L457.64373,148.60416 L457.64373,146.09 Z" id="emotion"></path>
                </g>
            </g>
        </g>
    </g>
</svg>