<?xml version="1.0" encoding="UTF-8"?>
<svg width="32px" height="32px" viewBox="0 0 32 32" version="1.1" xmlns="http://www.w3.org/2000/svg" xmlns:xlink="http://www.w3.org/1999/xlink">
    <title>git</title>
    <g id="Page-1" stroke="none" stroke-width="1" fill="none" fill-rule="evenodd">
        <g id="Skills" transform="translate(-556.000000, -888.000000)" fill="#262324" fill-rule="nonzero">
            <g id="Full-Stack" transform="translate(128.000000, 658.000000)">
                <path d="M459.160326,243.975544 L446.024457,230.839674 C445.467391,230.279891 444.733696,230 444,230 C443.266305,230 442.532609,230.279891 441.975544,230.839674 L439.377718,233.4375 L442.592392,236.652174 C443.660326,236.024456 445.051631,236.160326 445.967391,237.076087 C446.883152,237.991848 447.016305,239.383152 446.388587,240.448369 L449.548914,243.608696 C450.616848,242.980978 452.008153,243.116848 452.923913,244.032609 C454.01087,245.119565 454.01087,246.880435 452.923913,247.967391 C451.836957,249.054348 450.076087,249.054348 448.989131,247.967391 C448.07337,247.051631 447.9375,245.660326 448.565218,244.592392 L445.404891,241.432065 C445.179348,241.565217 444.942935,241.663043 444.695652,241.725544 L444.695652,250.271739 C445.894022,250.581522 446.782609,251.660326 446.782609,252.956522 C446.782609,254.494566 445.538044,255.73913 444,255.73913 C442.461957,255.73913 441.217391,254.494566 441.217391,252.956522 C441.217391,251.660326 442.105979,250.581522 443.304348,250.271739 L443.304348,241.725544 C442.839674,241.605978 442.39674,241.375 442.032609,241.01087 C441.116848,240.095109 440.983696,238.703805 441.611413,237.638587 L438.394022,234.421196 L428.839674,243.975544 C427.720109,245.092392 427.720109,246.907609 428.839674,248.024456 L441.975544,261.160326 C442.532609,261.720109 443.266305,262 444,262 C444.733696,262 445.467391,261.720109 446.024457,261.160326 L459.160326,248.024456 C460.279892,246.907609 460.279892,245.092392 459.160326,243.975544 Z" id="git"></path>
            </g>
        </g>
    </g>
</svg>