<?xml version="1.0" encoding="UTF-8"?>
<svg width="31px" height="30px" viewBox="0 0 31 30" version="1.1" xmlns="http://www.w3.org/2000/svg" xmlns:xlink="http://www.w3.org/1999/xlink">
    <title>Github</title>
    <g id="Page-1" stroke="none" stroke-width="1" fill="none" fill-rule="evenodd">
        <g id="Landing" transform="translate(-137.000000, -857.000000)" fill="#262324" fill-rule="nonzero">
            <g id="GitHub" transform="translate(128.000000, 848.000000)">
                <path d="M22.6044886,9.10610841 C15.5525963,9.87261845 9.88042195,15.5447928 9.11391191,22.4433831 C8.19409986,30.1084835 12.9464621,36.7004699 19.6917505,38.846698 L19.6917505,35.3207518 C19.6917505,35.3207518 19.0785424,35.4740538 18.3120324,35.4740538 C16.1658043,35.4740538 15.2459922,33.6344297 15.0926902,32.5613157 C14.9393882,31.9481076 14.6327842,31.4882016 14.1728782,31.0282956 C13.7129722,30.8749936 13.5596701,30.8749936 13.5596701,30.7216916 C13.5596701,30.4150875 14.0195762,30.4150875 14.1728782,30.4150875 C15.0926902,30.4150875 15.8592003,31.4882016 16.1658043,31.9481076 C16.9323143,33.1745237 17.8521264,33.4811277 18.3120324,33.4811277 C18.9252404,33.4811277 19.3851465,33.3278257 19.6917505,33.1745237 C19.8450525,32.1014096 20.3049585,31.0282956 21.2247706,30.4150875 C17.6988244,29.6485775 15.0926902,27.6556514 15.0926902,24.2830072 C15.0926902,22.5966851 15.8592003,20.910363 16.9323143,19.683947 C16.7790123,19.377343 16.6257103,18.6108329 16.6257103,17.5377189 C16.6257103,16.9245108 16.6257103,16.0046988 17.0856163,15.0848867 C17.0856163,15.0848867 19.2318444,15.0848867 21.3780726,17.0778128 C22.1445826,16.7712088 23.2176967,16.6179068 24.2908107,16.6179068 C25.3639248,16.6179068 26.4370388,16.7712088 27.3568509,17.0778128 C29.349777,15.0848867 31.6493071,15.0848867 31.6493071,15.0848867 C31.9559111,16.0046988 31.9559111,16.9245108 31.9559111,17.5377189 C31.9559111,18.7641349 31.8026091,19.377343 31.6493071,19.683947 C32.7224212,20.910363 33.4889312,22.4433831 33.4889312,24.2830072 C33.4889312,27.6556514 30.8827971,29.6485775 27.3568509,30.4150875 C28.2766629,31.1815976 28.889871,32.5613157 28.889871,33.9410337 L28.889871,39 C35.1752533,37.0070739 39.6210115,31.1815976 39.6210115,24.4363092 C39.6210115,15.2381887 31.8026091,8.03299435 22.6044886,9.10610841 Z" id="Github"></path>
            </g>
        </g>
    </g>
</svg>