<?xml version="1.0" encoding="UTF-8"?>
<svg width="25px" height="28px" viewBox="0 0 25 28" version="1.1" xmlns="http://www.w3.org/2000/svg" xmlns:xlink="http://www.w3.org/1999/xlink">
    <title>html-5</title>
    <g id="Page-1" stroke="none" stroke-width="1" fill="none" fill-rule="evenodd">
        <g id="Skills" transform="translate(-560.000000, -694.000000)" fill="#262324" fill-rule="nonzero">
            <g id="Full-Stack" transform="translate(128.000000, 658.000000)">
                <path d="M456.670619,36.3891486 C456.448583,36.1414023 456.131888,36 455.800002,36 L433.168616,36 C432.83673,36 432.520035,36.1414023 432.297998,36.3891486 C432.075962,36.6368948 431.970786,36.9676127 432.007013,37.2971619 L434.580302,60.4626043 C434.631721,60.9335559 434.964776,61.327379 435.420536,61.4570952 L444.161771,63.954424 C444.266947,63.984808 444.375628,64 444.48314,64 C444.590653,64 444.699334,63.984808 444.804509,63.954424 L453.545745,61.4570952 C454.001504,61.327379 454.333391,60.9335559 454.385978,60.4626043 L456.960436,37.2971619 C456.997831,36.9676127 456.892656,36.6368948 456.670619,36.3891486 Z M451.062439,44.6828047 L440.626713,44.6828047 L440.874459,47.6534224 L450.811187,47.6534224 L450.065611,56.4297162 L444.487815,58.2036728 L444.43289,58.1861436 L438.91703,56.427379 L438.615528,52.851419 L441.317364,52.851419 L441.435394,54.2409015 L444.51703,54.9198664 L447.54491,54.2397329 L447.866279,50.484975 L438.412189,50.484975 L437.680636,41.8430718 L451.305511,41.8430718 L451.062439,44.6828047 Z" id="html-5"></path>
            </g>
        </g>
    </g>
</svg>