<?xml version="1.0" encoding="UTF-8"?>
<svg width="28px" height="28px" viewBox="0 0 28 28" version="1.1" xmlns="http://www.w3.org/2000/svg" xmlns:xlink="http://www.w3.org/1999/xlink">
    <title>javascript</title>
    <g id="Page-1" stroke="none" stroke-width="1" fill="none" fill-rule="evenodd">
        <g id="Skills" transform="translate(-162.000000, -694.000000)" fill="#262324" fill-rule="nonzero">
            <g id="Full-Stack" transform="translate(128.000000, 658.000000)">
                <path d="M60.2239587,36 L35.778646,36 C34.7968753,36 34,36.7968753 34,37.778646 L34,62.221354 C34,63.2031253 34.7968753,64 35.778646,64 L60.221354,64 C61.2031253,64 62,63.2031253 62,62.2239587 L62,37.778646 C62,36.7968753 61.2031253,36 60.2239587,36 Z M49.3333333,57.4557293 C49.3333333,60.119792 47.7708333,61.3333333 45.4895833,61.3333333 C43.4270833,61.3333333 41.940104,59.9505207 41.3333333,58.6666667 L43.4296873,57.3984373 C43.8333333,58.1145833 44.4479167,58.6666667 45.3333333,58.6666667 C46.1796873,58.6666667 46.6666667,58.3359373 46.6666667,57.0494793 L46.6666667,48.6666667 L49.3333333,48.6666667 L49.3333333,57.4557293 Z M55.1171873,61.3333333 C52.7552087,61.3333333 51.4140627,60.1432293 50.6666667,58.6666667 L52.6666667,57.3333333 C53.2109373,58.2239587 53.8046873,59.0755207 55.059896,59.0755207 C56.1145833,59.0755207 56.6666667,58.5494793 56.6666667,57.8203127 C56.6666667,56.9505207 56.09375,56.6406253 54.934896,56.1328127 L54.2994793,55.8593753 C52.463542,55.0781253 51.2421873,54.0989587 51.2421873,52.026042 C51.2421873,50.119792 52.6979167,48.6666667 54.96875,48.6666667 C56.5859373,48.6666667 57.747396,49.2291667 58.5859373,50.7031253 L56.6067707,51.9765627 C56.1692707,51.1927087 55.7005207,50.8854167 54.96875,50.8854167 C54.2239587,50.8854167 53.752604,51.3593753 53.752604,51.9765627 C53.752604,52.7395833 54.2239587,53.0468753 55.315104,53.5208333 L55.9505207,53.7942707 C58.1145833,54.71875 59.3333333,55.6640627 59.3333333,57.7890627 C59.3333333,60.0781253 57.533854,61.3333333 55.1171873,61.3333333 Z" id="javascript"></path>
            </g>
        </g>
    </g>
</svg>