<?xml version="1.0" encoding="UTF-8"?>
<svg width="30px" height="30px" viewBox="0 0 30 30" version="1.1" xmlns="http://www.w3.org/2000/svg" xmlns:xlink="http://www.w3.org/1999/xlink">
    <title>LinkedIn</title>
    <g id="Page-1" stroke="none" stroke-width="1" fill="none" fill-rule="evenodd">
        <g id="Landing" transform="translate(-342.000000, -857.000000)" fill="#262324" fill-rule="nonzero">
            <g id="LinkedIn" transform="translate(333.000000, 848.000000)">
                <path d="M39,9 L9,9 L9,39 L39,39 L39,9 Z M19,32.3333333 L14.795,32.3333333 L14.795,20.6666667 L19,20.6666667 L19,32.3333333 Z M16.8233333,18.5283333 C15.5383333,18.5283333 14.68,17.6716667 14.68,16.5283333 C14.68,15.385 15.5366667,14.5283333 16.965,14.5283333 C18.25,14.5283333 19.1083333,15.385 19.1083333,16.5283333 C19.1083333,17.6716667 18.2516667,18.5283333 16.8233333,18.5283333 Z M34,32.3333333 L29.93,32.3333333 L29.93,25.9566667 C29.93,24.1933333 28.845,23.7866667 28.4383333,23.7866667 C28.0316667,23.7866667 26.675,24.0583333 26.675,25.9566667 C26.675,26.2283333 26.675,32.3333333 26.675,32.3333333 L22.47,32.3333333 L22.47,20.6666667 L26.675,20.6666667 L26.675,22.295 C27.2166667,21.345 28.3016667,20.6666667 30.3366667,20.6666667 C32.3716667,20.6666667 34,22.295 34,25.9566667 L34,32.3333333 Z"></path>
            </g>
        </g>
    </g>
</svg>