<?xml version="1.0" encoding="UTF-8"?>
<svg width="29px" height="32px" viewBox="0 0 29 32" version="1.1" xmlns="http://www.w3.org/2000/svg" xmlns:xlink="http://www.w3.org/1999/xlink">
    <title>node-js</title>
    <g id="Page-1" stroke="none" stroke-width="1" fill="none" fill-rule="evenodd">
        <g id="Skills" transform="translate(-558.000000, -790.000000)" fill="#262324" fill-rule="nonzero">
            <g id="Full-Stack" transform="translate(128.000000, 658.000000)">
                <path d="M445.434084,132.308682 L457.163987,139.099678 C457.928341,139.540652 458.398714,140.363803 458.398714,141.245751 L458.398714,154.798346 C458.398714,155.680294 457.928341,156.503445 457.163987,156.944419 L445.434084,163.735416 C445.051906,163.911805 444.610932,164 444.199357,164 C443.758383,164 443.346807,163.882407 442.96463,163.676619 L431.234727,156.944419 C430.470372,156.503445 430,155.680294 430,154.798346 L430,141.245751 C430,140.363803 430.470372,139.540652 431.234727,139.099678 L442.96463,132.308682 C443.699586,131.897106 444.699127,131.897106 445.434084,132.308682 Z M445.187138,135.446945 C444.599173,135.117685 443.799541,135.117685 443.211575,135.446945 L443.211575,135.446945 L433.827653,140.879743 C433.216169,141.232522 432.839871,141.891043 432.839871,142.596601 L432.839871,142.596601 L432.839871,153.438677 C432.839871,154.144235 433.216169,154.802756 433.827653,155.155535 L433.827653,155.155535 L436.297106,156.566651 C437.496555,157.154616 437.91989,157.154616 438.460818,157.154616 C440.224713,157.154616 441.236013,156.072761 441.236013,154.214791 L441.236013,154.214791 L441.236013,143.513826 C441.236013,143.349196 441.094901,143.231603 440.95379,143.231603 L440.95379,143.231603 L439.754341,143.231603 C439.589711,143.231603 439.472118,143.372715 439.472118,143.513826 L439.472118,143.513826 L439.472118,154.214791 C439.472118,155.037942 438.601929,155.861093 437.214332,155.155535 L437.214332,155.155535 L434.650804,153.673863 C434.556729,153.626826 434.509692,153.509233 434.509692,153.415158 L434.509692,153.415158 L434.509692,142.573082 C434.509692,142.479008 434.556729,142.361415 434.650804,142.314378 L434.650804,142.314378 L444.034727,136.905099 C444.105282,136.858062 444.222875,136.858062 444.31695,136.905099 L444.31695,136.905099 L453.700873,142.314378 C453.794947,142.361415 453.841984,142.455489 453.841984,142.573082 L453.841984,142.573082 L453.841984,153.415158 C453.841984,153.532751 453.794947,153.626826 453.700873,153.673863 L453.700873,153.673863 L444.31695,159.10666 C444.246394,159.153698 444.128801,159.153698 444.034727,159.10666 L444.034727,159.10666 L441.635829,157.672026 C441.565273,157.624988 441.471199,157.60147 441.400643,157.648507 C440.742122,158.024805 440.624529,158.071842 439.989527,158.283509 C439.848415,158.330546 439.613229,158.424621 440.083601,158.683326 L440.083601,158.683326 L443.211575,160.541295 C443.517317,160.705925 443.846578,160.8 444.199357,160.8 C444.528617,160.8 444.881396,160.729444 445.187138,160.588332 L445.187138,160.588332 L454.571061,155.155535 C455.182545,154.802756 455.558842,154.144235 455.558842,153.438677 L455.558842,153.438677 L455.558842,142.596601 C455.558842,141.891043 455.182545,141.232522 454.571061,140.879743 L454.571061,140.879743 Z M446.739366,142.902343 C444.058245,142.902343 442.45898,144.031236 442.45898,145.936242 C442.45898,147.982361 444.058245,148.546807 446.621773,148.805512 C449.70271,149.111254 449.937896,149.558107 449.937896,150.169591 C449.937896,151.227928 449.091226,151.674782 447.115664,151.674782 C444.622692,151.674782 444.081764,151.063298 443.893615,149.816812 C443.893615,149.6757 443.776022,149.581626 443.63491,149.581626 L443.63491,149.581626 L442.411943,149.581626 C442.247313,149.581626 442.12972,149.722738 442.12972,149.863849 C442.12972,151.463114 442.976389,153.344603 447.092145,153.344603 C450.079008,153.344603 451.772347,152.168672 451.795866,150.099035 C451.795866,148.076435 450.431787,147.535508 447.538999,147.15921 C444.622692,146.782912 444.31695,146.571245 444.31695,145.889205 C444.31695,145.324759 444.575654,144.572163 446.739366,144.572163 C448.667891,144.572163 449.396968,144.995498 449.679191,146.289022 C449.70271,146.406615 449.820303,146.500689 449.937896,146.500689 L449.937896,146.500689 L451.160863,146.500689 C451.231419,146.500689 451.301975,146.453652 451.349012,146.406615 C451.396049,146.336059 451.419568,146.265503 451.419568,146.194947 C451.231419,143.937161 449.749747,142.902343 446.739366,142.902343 Z" id="node-js"></path>
            </g>
        </g>
    </g>
</svg>