<?xml version="1.0" encoding="UTF-8"?>
<svg width="33px" height="22px" viewBox="0 0 33 22" version="1.1" xmlns="http://www.w3.org/2000/svg" xmlns:xlink="http://www.w3.org/1999/xlink">
    <title>personas</title>
    <g id="Page-1" stroke="none" stroke-width="1" fill="none" fill-rule="evenodd">
        <g id="Skills" transform="translate(-952.000000, -1429.000000)" fill="#262324" fill-rule="nonzero">
            <g id="UX-Design" transform="translate(128.000000, 1390.000000)">
                <path d="M840.5,39 C837.84213,39 835.6875,41.1546296 835.6875,43.8125 C835.6875,46.4703704 837.84213,48.625 840.5,48.625 C843.15787,48.625 845.3125,46.4703704 845.3125,43.8125 C845.3125,41.1546296 843.15787,39 840.5,39 Z M830.1875,43.125 C828.289021,43.125 826.75,44.6640212 826.75,46.5625 C826.75,48.4609788 828.289021,50 830.1875,50 C831.099182,50 831.973523,49.6378359 832.61818,48.9931796 C833.262836,48.3485233 833.625,47.4741817 833.625,46.5625 C833.625,45.6508183 833.262836,44.7764767 832.61818,44.1318204 C831.973523,43.4871641 831.099182,43.125 830.1875,43.125 Z M850.8125,43.125 C848.914021,43.125 847.375,44.6640212 847.375,46.5625 C847.375,48.4609788 848.914021,50 850.8125,50 C851.724182,50 852.598523,49.6378359 853.24318,48.9931796 C853.887836,48.3485233 854.25,47.4741817 854.25,46.5625 C854.25,44.6640212 852.710979,43.125 850.8125,43.125 Z M840.5,51.375 C837.288,51.375 830.875,52.987875 830.875,56.1875 L830.875,61 L850.125,61 L850.125,56.1875 C850.125,52.987875 843.712,51.375 840.5,51.375 Z M829.360352,52.8225092 C827.186477,53.1580092 824,54.6599822 824,56.4694822 L824,61 L828.125,61 L828.125,56.1875 C828.125,54.866125 828.599977,53.7575092 829.360352,52.8225092 Z M851.639648,52.8225092 C852.400024,53.7575092 852.875,54.866125 852.875,56.1875 L852.875,61 L857,61 L857,56.4694822 C857,54.6599822 853.813523,53.1580092 851.639648,52.8225092 Z" id="personas"></path>
            </g>
        </g>
    </g>
</svg>