<?xml version="1.0" encoding="UTF-8"?>
<svg width="30px" height="32px" viewBox="0 0 30 32" version="1.1" xmlns="http://www.w3.org/2000/svg" xmlns:xlink="http://www.w3.org/1999/xlink">
    <title>postgresql</title>
    <g id="Page-1" stroke="none" stroke-width="1" fill="none" fill-rule="evenodd">
        <g id="Skills" transform="translate(-161.000000, -888.000000)" fill="#262324" fill-rule="nonzero">
            <g id="Full-Stack" transform="translate(128.000000, 658.000000)">
                <path d="M55.1995667,230 C54.1232852,230 53.1890729,230.212386 52.3294828,230.42836 C53.8362768,231.073411 54.7704891,231.863402 55.2713188,232.222162 C56.4207874,233.225974 57.0651212,234.231939 58.2145898,235.882954 C58.4276935,236.241715 58.786454,236.743262 59.0024278,237.5311 C59.2176841,238.248621 59.2176841,238.822638 59.2176841,239.397372 C59.2176841,240.18808 59.145932,240.832414 59.0727448,241.477465 C59.0024278,241.981883 59.0024278,242.197856 58.9321107,242.340643 C58.9321107,242.413113 58.9321107,242.48343 58.8596411,242.626216 C58.8596411,242.984977 58.8596411,243.130634 58.9321107,243.416925 C58.9321107,243.702498 59.0024278,243.990941 59.0024278,244.493206 C59.0756149,245.425983 59.0756149,246.071035 58.9321107,246.858873 L58.9321107,247.147316 C58.786454,247.79165 58.6436673,248.438854 58.2849068,249.011435 C58.358094,249.157092 58.428411,249.226692 58.5001631,249.370196 C58.8589236,248.867931 59.145932,248.366384 59.4315053,247.79452 C60.2939655,246.214539 60.7962302,244.851966 61.1549907,243.848155 C61.7993245,241.981883 62.158085,240.61644 62.3747763,239.613346 C62.875606,237.460783 62.9487931,236.457689 62.7335368,235.30822 C62.7335368,234.94946 62.5900326,234.302256 62.2312721,233.657922 C61.440564,232.22288 60.2222134,231.577111 59.3611883,231.146599 C58.7871715,230.85959 57.2789424,230.070317 55.1995667,230 Z M39.654475,230.316427 C38.8278908,230.299924 37.8190563,230.391766 36.6860907,230.929907 C36.3273302,231.076281 35.2510488,231.577829 34.3907412,232.72371 C33.8167244,233.441231 33.3876469,234.517512 33.171673,235.737298 C32.9564168,236.813579 32.8832296,238.107987 33.3151772,240.546841 C33.6007506,242.267456 33.889194,243.416925 34.4632108,245.782591 C34.5363979,246.071035 34.9654755,247.36329 35.8982527,250.233374 L35.9685698,250.37616 C36.114944,250.878425 36.5433041,251.954706 37.4767988,253.030988 C38.1211327,253.748509 38.6965845,254.179021 39.2002842,254.179021 L39.3409183,254.179021 C40.2736956,254.179021 40.921617,253.461501 41.4934812,252.887484 C41.4934812,252.814297 42.8582061,251.166868 43.3597532,250.591417 C43.2872836,250.519665 43.1466495,250.519665 43.0741799,250.446477 C42.2131547,249.944213 41.5659508,249.157092 41.0644037,248.293915 C40.2033785,246.715368 40.2736956,245.13754 40.4171998,244.347549 L40.4896694,243.130634 C40.204096,241.191174 40.2765656,239.327773 40.6353261,237.460783 C40.921617,235.882237 41.2803775,234.305126 42.5697626,232.653393 C43.0009927,232.079376 43.5025399,231.577111 44.0048046,231.218351 C42.8693422,230.721431 41.6545663,230.430371 40.4171998,230.35876 C40.1840054,230.33867 39.9292855,230.322167 39.654475,230.316427 L39.654475,230.316427 Z M48.6686908,230.929907 C48.3099304,230.929907 47.9511699,230.929907 47.5924094,231.003094 C46.1573675,231.288668 44.7947952,232.079376 43.7185137,233.441231 C42.6422323,234.806673 42.3566589,236.096058 42.0703681,237.60357 C41.9247113,238.178304 41.9247113,238.679851 41.8522417,239.254585 C42.2834718,238.895825 42.8582061,238.463877 43.7185137,238.248621 C44.2207784,238.105117 45.5123161,237.676757 46.5885976,238.321091 C46.9473581,238.537064 47.4496227,238.969012 47.9511699,240.18808 C49.0274513,243.200951 47.95404,246.287008 47.8105358,246.572582 C47.7380662,246.858873 47.5952795,247.074846 47.5220923,247.217633 C47.3785882,247.576394 47.236519,247.864837 47.0930148,248.439571 C47.0205452,248.941118 46.9473581,249.372349 46.9473581,249.874613 C47.1633319,249.874613 47.3793057,249.944213 47.5924094,250.087717 C47.9511699,250.446477 48.0236395,250.950895 48.0968266,251.163998 C48.2396133,252.312749 48.2396133,253.747791 48.2396133,255.182833 C48.2396133,256.332302 48.2396133,257.408583 48.3099304,258.126104 C48.4555871,259.776403 48.9571343,260.923001 49.6746552,261.497735 C50.1769199,261.929683 50.8212537,261.926813 51.1800142,262 L51.325671,262 C52.4019524,262 54.1225677,261.282479 54.7676191,260.27795 C55.1263795,259.703933 55.2720363,259.201668 55.414823,258.484147 C55.4880101,258.053635 55.48514,257.839813 55.5583272,257.407866 C55.5583272,257.19261 55.6300793,256.833849 55.6300793,256.404772 C55.6300793,256.046011 55.7003963,255.614781 55.7735834,255.110364 C55.8467706,253.890578 56.0591568,252.458406 56.1323439,251.668416 C56.2055311,250.734921 56.6346086,249.944213 56.9933691,249.442666 C56.4911044,249.370196 55.9888397,248.941118 55.7032664,248.223597 C55.2720363,247.432889 55.1988492,247.217633 55.1263795,246.858873 C55.0560625,246.572582 54.9132758,246.213821 54.4088586,245.13754 C53.3325771,242.699404 53.191943,241.981883 53.191943,241.407148 C53.1194734,240.61644 53.0462863,239.543029 53.909464,238.825508 C55.1988492,237.676757 56.8498649,237.749226 57.7101725,238.035517 L57.7101725,237.889861 C57.5673859,237.317996 57.2818125,236.886049 57.0658387,236.600475 C55.9888397,234.94946 55.414823,234.088434 54.4088586,233.227409 C53.4935645,232.454302 52.450117,231.847223 51.325671,231.433607 C50.60815,231.218351 49.7449723,230.92919 48.6686908,230.92919 L48.6686908,230.929907 Z M56.6001676,239.344276 C56.0792474,239.308399 55.414823,239.397372 54.8400887,239.901789 C54.5545153,240.18808 54.5545153,240.762814 54.6269849,241.264362 C54.6269849,241.623122 54.697302,242.124669 55.7735834,244.565676 C56.2758481,245.712274 56.4179173,246.071035 56.4911044,246.359478 C56.5642915,246.645769 56.6346086,246.788556 57.0651212,247.576394 C57.1383083,247.72205 57.2086254,247.864837 57.3521296,248.007624 C57.4941987,247.792367 57.5673859,247.433607 57.6377029,246.858873 L57.7101725,246.645769 C57.8536767,246.000718 57.7833597,245.4963 57.7833597,244.635993 C57.7833597,244.204045 57.7101725,243.918472 57.7101725,243.703215 C57.6377029,243.344455 57.6377029,243.057447 57.6377029,242.626934 C57.4941987,242.410243 57.4941987,242.339926 57.5673859,242.194986 C57.5673859,242.051482 57.6377029,241.839096 57.7108901,241.407148 C57.7826421,240.833132 57.8558293,240.330867 57.8558293,239.75685 C57.7101725,239.683663 57.640573,239.613346 57.4970688,239.543029 C57.4970688,239.543029 57.1189353,239.380869 56.6001676,239.344276 Z M45.3810098,239.627696 C44.9239489,239.573882 44.3994411,239.722409 44.0772742,239.828602 C43.2872836,240.045294 42.787889,240.546123 42.4291285,240.833132 C42.2138722,241.048388 41.9978984,241.263644 41.7819246,241.550652 C41.7819246,242.051482 41.8522417,242.556617 41.9254288,243.057447 L41.9254288,243.130634 L41.7819246,244.565676 C41.6384204,245.210727 41.5666683,246.429795 42.2841893,247.648863 C42.6429498,248.366384 43.1466495,248.941118 43.7909833,249.299879 C44.2229309,249.585452 44.7955127,249.802144 45.4398465,249.947083 C45.4398465,249.442666 45.5123161,248.867931 45.5855033,248.366384 C45.7282899,247.648863 45.8710766,247.290103 46.0870504,246.858873 C46.154142,246.654933 46.2513658,246.462179 46.3754938,246.287008 C46.4458109,246.071035 47.4489052,243.343737 46.516128,240.832414 C46.3030242,240.258397 46.0870504,239.899637 45.798607,239.756133 C45.6699536,239.684394 45.5277003,239.640398 45.3810098,239.626979 L45.3810098,239.627696 Z M55.9084774,240.036683 C56.0957504,240.025203 56.2751306,240.042423 56.3483177,240.115611 C56.563574,240.25768 56.2751306,240.61644 56.202661,240.689627 C56.1323439,240.762814 55.9895573,240.904884 55.7735834,240.978071 C55.4880101,241.048388 55.2713188,240.832414 55.1995667,240.832414 C55.1263795,240.759944 54.9125583,240.546841 54.9857454,240.330867 C55.0560625,240.187363 55.1292496,240.187363 55.414823,240.115611 C55.5755113,240.06914 55.7413102,240.042631 55.9084774,240.036683 Z M45.1227022,240.630791 C45.3637893,240.614288 45.5654127,240.70613 45.7282899,240.759944 C45.9435462,240.832414 46.1573675,240.905601 46.1573675,241.048388 C46.2298371,241.263644 46.0167334,241.407148 45.9442637,241.477465 C45.7282899,241.692722 45.3695295,241.695592 45.3695295,241.695592 C45.010769,241.695592 44.7955127,241.480335 44.6520085,241.264362 C44.5788213,241.191174 44.5085043,241.048388 44.5816914,240.905601 C44.6520085,240.762097 44.7947952,240.689627 44.8679823,240.689627 C44.9576724,240.653751 45.0416224,240.636531 45.1227022,240.630791 L45.1227022,240.630791 Z M58.2849068,250.0174 C57.9261463,250.519665 57.4238817,251.166868 57.3521296,252.026459 C57.3521296,252.169963 57.3521296,252.24315 57.2789424,252.385219 C57.8529592,252.528723 58.358094,252.528723 58.8596411,252.458406 C60.0083922,252.313467 60.7962302,251.738015 60.9390169,251.595946 C61.4412815,251.237186 62.0884855,250.519665 61.9428287,250.234091 C61.8725116,250.090587 61.6565378,250.160904 60.5077868,250.234091 C60.2214959,250.234091 59.3611883,250.449348 58.786454,250.306561 L58.6436673,250.306561 C58.5001631,250.234091 58.358094,250.160904 58.2849068,250.018117 L58.2849068,250.0174 Z M45.798607,251.452442 C45.6551028,251.667698 45.4427166,251.811202 45.2992124,251.954706 C44.7251956,252.313467 44.0048046,252.60191 43.2872836,252.74398 C42.6422323,252.960671 42.2834718,252.960671 42.2834718,253.175927 C42.2110022,253.462218 42.9285231,253.820979 43.2872836,253.963765 C44.5092218,254.46603 45.7282899,254.179021 45.9442637,254.107269 C46.0870504,254.034082 46.4458109,253.890578 46.8045714,253.675322 C46.8045714,252.887484 46.7342543,252.169963 46.6610672,251.595228 L46.6610672,251.522759 L46.5893151,251.522759 C46.3726238,251.522759 46.0870504,251.525629 45.798607,251.452442 L45.798607,251.452442 Z" id="postgresql"></path>
            </g>
        </g>
    </g>
</svg>