<?xml version="1.0" encoding="UTF-8"?>
<svg width="36px" height="32px" viewBox="0 0 36 32" version="1.1" xmlns="http://www.w3.org/2000/svg" xmlns:xlink="http://www.w3.org/1999/xlink">
    <title>react-js</title>
    <g id="Page-1" stroke="none" stroke-width="1" fill="none" fill-rule="evenodd">
        <g id="Skills" transform="translate(-158.000000, -790.000000)" fill="#262324" fill-rule="nonzero">
            <g id="Full-Stack" transform="translate(128.000000, 658.000000)">
                <path d="M47.8399123,135.214713 C51.1045173,132.378793 54.3691223,131.22464 56.6444531,132.543672 C58.9857355,133.89568 59.7771549,137.193261 58.8538322,141.644995 C62.9098566,143.062955 65.5479213,145.30531 65.5479213,147.943375 C65.5479213,150.680367 63.1406873,152.823794 58.8208564,154.241754 C59.6782274,158.528609 58.9857355,162.089996 56.6444531,163.442005 C54.4020981,164.761037 51.1374931,163.672835 47.9388397,160.902867 C44.6742347,163.804738 41.2117748,164.728061 38.8704924,163.376053 C36.6281375,162.089996 35.9356455,158.726464 36.7600407,154.571512 C32.6380647,153.186528 30,150.647391 30,147.97635 C30,145.371262 32.7369921,143.062955 36.7600407,141.612019 C35.9026697,137.35814 36.5621858,133.961632 38.8375166,132.6426 C41.2117748,131.290592 44.443404,132.213914 47.8399123,135.214713 Z M54.8926644,135.741729 C53.414757,134.884542 50.9909889,135.771287 48.5672208,137.899473 L48.5672208,137.899473 L48.3307556,138.107475 C48.1731122,138.247603 48.0154687,138.392109 47.8578253,138.549753 C47.7100345,138.401962 47.5622438,138.254171 47.3848949,138.10638 L47.3848949,138.10638 L47.1605511,137.909023 C44.692521,135.776349 42.2261288,134.910623 40.7343117,135.771287 C39.2564044,136.628473 38.8130322,139.170474 39.4337533,142.333195 L39.4337533,142.333195 L39.4939643,142.650672 C39.5355647,142.858674 39.581544,143.062296 39.6406603,143.279056 C39.2859625,143.367731 38.9312647,143.485963 38.6061251,143.604196 L38.6061251,143.604196 L38.3376828,143.699938 C35.5060753,144.739077 33.6994726,146.345042 33.6994726,147.978802 C33.6994726,149.722732 35.768543,151.496221 38.8721485,152.560314 C39.1381718,152.648989 39.374637,152.737663 39.6406603,152.79678 C39.5519858,153.121919 39.4928696,153.476617 39.4041951,153.801757 C38.8130322,156.93492 39.2859625,159.388246 40.7343117,160.245433 C42.2417773,161.132177 44.8133361,160.215875 47.2962205,158.05813 L47.2962205,158.05813 L47.8873834,157.526083 L48.1326066,157.762548 C48.3011975,157.920192 48.4785464,158.077835 48.6558953,158.235479 C51.0501052,160.304549 53.4443151,161.132177 54.9222225,160.304549 C56.429688,159.417805 56.9321765,156.757571 56.2818973,153.535733 C56.2621919,153.456912 56.2424864,153.374806 56.222781,153.29051 L56.222781,153.29051 L56.1045484,152.767221 L56.9204673,152.494234 C60.0096246,151.42317 61.9866198,149.729687 61.9866198,148.00836 C61.9866198,146.323545 60.0062239,144.668289 56.9617347,143.604196 C56.6661532,143.515521 56.3705717,143.397289 56.0454321,143.308614 L56.0454321,143.308614 L56.1932229,142.687893 C56.8730603,139.347822 56.429688,136.628473 54.8926644,135.741729 Z M40.793428,153.151477 C42.0644284,153.417501 43.3354287,153.59485 44.6064291,153.713082 C45.3453827,154.777175 46.1730109,155.782152 47.0301972,156.728013 L47.0301972,156.728013 L46.4981505,157.230502 L46.2180575,157.466287 C45.3625265,158.16247 44.3729197,158.755702 43.3354287,159.181339 C42.4782424,159.476921 41.7688469,159.506479 41.3550328,159.270014 C40.4682884,158.767525 40.0840325,156.757571 40.586521,154.097338 C40.6456373,153.772198 40.7047536,153.476617 40.793428,153.151477 Z M54.9813388,153.062803 C54.9813388,153.222417 55.0026207,153.360749 55.0324153,153.496953 L55.0324153,153.496953 L55.0995714,153.772198 C55.3655947,155.013641 55.424711,156.255083 55.2473621,157.496525 C55.0700133,158.412828 54.7448736,159.003991 54.3310596,159.240456 C53.4443151,159.742944 51.5230356,159.092665 49.4835234,157.319176 C49.2470582,157.112269 49.010593,156.905362 48.7741279,156.668897 C49.6313141,155.723036 50.4293841,154.718059 51.1387796,153.653966 C52.4393381,153.535733 53.7103385,153.358384 54.9813388,153.062803 Z M49.5426397,153.772198 C49.010593,154.481594 48.4785464,155.161431 47.8873834,155.811711 C47.2962205,155.161431 46.7050575,154.481594 46.1730109,153.772198 C46.7050575,153.801757 47.2666623,153.801757 47.8282671,153.801757 L47.8282671,153.801757 L48.4106721,153.800662 C48.7938333,153.798472 49.1682365,153.791904 49.5426397,153.772198 Z M45.2271502,143.574638 C46.9415227,143.456405 48.6558953,143.456405 50.399826,143.574638 C50.8727563,144.284033 51.3456867,145.022987 51.7595007,145.76194 L51.7595007,145.76194 L52.0818693,146.321236 C52.3950009,146.88515 52.6831929,147.461534 52.9713848,148.037918 C52.616687,148.80643 52.202873,149.574942 51.7890589,150.313895 C51.3456867,151.052849 50.9023145,151.791803 50.4293841,152.501198 C49.601756,152.560314 48.7150116,152.589873 47.8282671,152.589873 C46.9415227,152.589873 46.0843364,152.560314 45.2567083,152.501198 C44.7542198,151.791803 44.3108476,151.052849 43.8674754,150.313895 C43.4241032,149.574942 43.0398472,148.80643 42.6555913,148.037918 C43.0398472,147.269406 43.4241032,146.500894 43.8674754,145.76194 C44.3108476,145.022987 44.7542198,144.284033 45.2271502,143.574638 Z M42.0348702,149.456709 L42.8329402,150.934616 L43.1285217,151.428347 C43.325576,151.752392 43.5226303,152.067679 43.7196846,152.382966 C42.8329402,152.294291 41.9757539,152.1465 41.1185677,151.969151 C41.384591,151.111965 41.6801725,150.284337 42.0348702,149.456709 L42.0348702,149.456709 Z M53.6512222,149.427151 C54.00592,150.254779 54.3310596,151.082407 54.5970829,151.910035 C53.7103385,152.116942 52.8531522,152.264733 51.9664078,152.353407 C52.2619893,151.880477 52.5575707,151.407547 52.8235941,150.905058 C53.1191755,150.432128 53.3851989,149.929639 53.6512222,149.427151 Z M39.9657999,144.49094 C40.3500558,145.702824 40.793428,146.914708 41.3550328,148.067476 C40.8229862,149.249802 40.3500558,150.461686 39.9657999,151.703128 L39.9657999,151.703128 L39.4171268,151.51608 L39.2564044,151.466663 C38.0445203,151.082407 36.9508689,150.491244 35.9458919,149.722732 C35.2364963,149.131569 34.8817985,148.510848 34.8817985,148.037918 C34.8817985,147.003383 36.4188222,145.702824 38.990381,144.786522 C39.3155207,144.668289 39.6406603,144.579615 39.9657999,144.49094 Z M55.7498507,144.49094 C55.8483778,144.520498 55.9436207,144.550056 56.0366742,144.579615 L56.0366742,144.579615 L56.5774788,144.756963 C59.2081539,145.643708 60.8042939,147.003383 60.8042939,148.00836 C60.7747357,149.102011 59.0603632,150.520802 56.2523392,151.466663 C56.1045484,151.525779 55.9271995,151.555337 55.7794088,151.614454 C55.3951529,150.373011 54.8926644,149.190686 54.3606177,148.037918 C54.8926644,146.88515 55.3655947,145.702824 55.7498507,144.49094 Z M47.9019397,145.759104 C46.6772638,145.759104 45.6871003,146.749267 45.6610434,148 C45.6610434,149.250733 46.6772638,150.240896 47.9019397,150.240896 C49.1526726,150.240896 50.1428361,149.224676 50.1428361,148 C50.1428361,146.749267 49.1266157,145.759104 47.9019397,145.759104 Z M43.7196846,143.751986 C43.3899543,144.202697 43.0935844,144.676889 42.8329402,145.170778 L42.8329402,145.170778 L42.5669169,145.652466 C42.389568,145.9787 42.2122191,146.313693 42.0348702,146.648685 C41.7097306,145.850615 41.384591,145.022987 41.1481258,144.195359 C42.0053121,144.01801 42.8624984,143.870219 43.7196846,143.751986 Z M51.9664078,143.722428 C52.8827103,143.840661 53.7398966,143.988452 54.5379666,144.165801 C54.2719433,144.993429 53.9763618,145.821057 53.621664,146.589569 C53.3851989,146.116638 53.1191755,145.643708 52.8235941,145.141219 L52.8235941,145.141219 L52.5488128,144.668289 C52.3605164,144.353002 52.1634621,144.037715 51.9664078,143.722428 Z M49.5522674,138.659764 C51.5676364,136.965246 53.4157762,136.32066 54.2719433,136.805822 L54.2719433,136.805822 L54.3617101,136.865215 C55.2415489,137.509281 55.5820367,139.648171 54.9813388,142.451428 L54.9813388,142.451428 L54.9441174,142.63644 C54.915654,142.763431 54.8828117,142.8948 54.8631062,143.013033 C53.621664,142.717451 52.3506637,142.540102 51.0796634,142.42187 C50.3407097,141.387335 49.5426397,140.382358 48.6854534,139.436497 C48.8923604,139.22959 49.1288256,139.022683 49.3357327,138.845334 L49.3357327,138.845334 Z M41.3254747,136.83538 C42.2713354,136.273775 44.3699639,137.071845 46.5868249,139.022683 L46.5868249,139.022683 L46.7335209,139.148579 C46.8298586,139.236158 46.9218173,139.328117 47.000639,139.406939 C46.1434527,140.3528 45.3158246,141.357777 44.5768709,142.392312 C43.3058706,142.510544 42.0348702,142.687893 40.793428,142.983475 C40.7737226,142.8948 40.7540172,142.802842 40.7343117,142.708693 L40.7343117,142.708693 L40.6160792,142.126288 C40.0840325,139.406939 40.4387303,137.367427 41.3254747,136.83538 Z M47.8578253,140.293683 C48.4489882,140.943962 49.010593,141.594242 49.5130815,142.303637 C48.3898719,142.244521 47.2962205,142.244521 46.1730109,142.303637 C46.7050575,141.6238 47.2666623,140.943962 47.8578253,140.293683 Z" id="react-js"></path>
            </g>
        </g>
    </g>
</svg>