<?xml version="1.0" encoding="UTF-8"?>
<svg width="23px" height="28px" viewBox="0 0 23 28" version="1.1" xmlns="http://www.w3.org/2000/svg" xmlns:xlink="http://www.w3.org/1999/xlink">
    <title>storyboarding</title>
    <g id="Page-1" stroke="none" stroke-width="1" fill="none" fill-rule="evenodd">
        <g id="Skills" transform="translate(-165.000000, -1426.000000)" fill="#262324" fill-rule="nonzero">
            <g id="UX-Design" transform="translate(128.000000, 1390.000000)">
                <path d="M39.8,36 C38.253,36 37,37.253 37,38.8 L37,59.8 C37,62.102958 38.8970423,64 41.2,64 L59.4,64 L59.4,61.2 L41.2,61.2 C40.4089577,61.2 39.8,60.591042 39.8,59.8 C39.8,59.008958 40.4089577,58.4 41.2,58.4 L59.4,58.4 L59.4,57 L59.4,55.6 L59.4,36 L53.8,36 L53.8,50 L49.6,47.2 L45.4,50 L45.4,36 L39.8,36 Z" id="storyboarding"></path>
            </g>
        </g>
    </g>
</svg>