<?xml version="1.0" encoding="UTF-8"?>
<svg width="30px" height="30px" viewBox="0 0 30 30" version="1.1" xmlns="http://www.w3.org/2000/svg" xmlns:xlink="http://www.w3.org/1999/xlink">
    <title>style-guides</title>
    <g id="Page-1" stroke="none" stroke-width="1" fill="none" fill-rule="evenodd">
        <g id="Skills" transform="translate(-557.000000, -1621.000000)" fill="#262324" fill-rule="nonzero">
            <g id="UX-Design" transform="translate(128.000000, 1390.000000)">
                <path d="M441,238.678618 L443.065909,240.743186 L446.604545,237.196626 C448.427922,237.922291 446.430682,239.870052 446.879221,240.503731 C447.266396,241.052726 448.299351,240.954899 449.703409,240.293478 C450.363799,239.982479 450.816721,239.943056 451.059253,240.035042 C452.786201,240.696463 448.169318,243.37427 449.703409,244.422615 C449.948864,244.590526 450.818182,244.590526 451.816071,244.375892 L449.265097,246.935432 L451.331006,249 L459,241.322842 L448.670455,231 L441,238.678618 Z M435.825719,243.727545 C434.67332,244.881506 434.671843,246.750599 435.824241,247.90456 L436.950046,249.031926 C437.511471,249.593392 437.527723,250.497649 436.989937,251.082756 C436.583643,251.523064 436.13007,251.957462 435.824241,252.086008 C434.66741,252.57212 432.473421,253.34783 431.123046,254.698305 C429.103393,256.718107 428.401612,259.29051 429.555488,260.444471 C430.709364,261.598432 433.281577,260.896599 435.30123,258.876797 C436.651605,257.526323 437.427258,255.333648 437.913333,254.175254 C438.04187,253.869403 438.474759,253.418752 438.912079,253.012428 C439.497143,252.470169 440.404288,252.486422 440.968667,253.050844 L442.094472,254.176732 C443.248349,255.330693 445.11878,255.330693 446.272656,254.176732 L449,251.449187 L438.551585,241 L435.825719,243.727545 Z M433.560153,256.439847 C434.146616,257.024811 434.146616,257.974251 433.560153,258.560715 C432.975189,259.145678 432.024249,259.147178 431.439285,258.560715 C430.852822,257.974251 430.854322,257.024811 431.439285,256.439847 C432.025749,255.853384 432.975189,255.853384 433.560153,256.439847 Z" id="style-guides"></path>
            </g>
        </g>
    </g>
</svg>