<?xml version="1.0" encoding="UTF-8"?>
<svg width="28px" height="28px" viewBox="0 0 28 28" version="1.1" xmlns="http://www.w3.org/2000/svg" xmlns:xlink="http://www.w3.org/1999/xlink">
    <title>typescript</title>
    <g id="Page-1" stroke="none" stroke-width="1" fill="none" fill-rule="evenodd">
        <g id="Skills" transform="translate(-954.000000, -792.000000)" fill="#262324" fill-rule="nonzero">
            <g id="Full-Stack" transform="translate(128.000000, 658.000000)">
                <path d="M852,134 C853.104569,134 854,134.895431 854,136 L854,160 C854,161.104569 853.104569,162 852,162 L828,162 C826.895431,162 826,161.104569 826,160 L826,136 C826,134.895431 826.895431,134 828,134 L852,134 Z M848.099875,147.015625 C847.449367,147.015625 846.833148,147.085516 846.251164,147.225242 C845.66918,147.364969 845.157086,147.583117 844.714828,147.879687 C844.272625,148.176312 843.923172,148.554148 843.666414,149.013305 C843.409656,149.472406 843.28125,150.021359 843.28125,150.660164 C843.28125,151.475773 843.516625,152.171617 843.987375,152.747695 C844.45807,153.323719 845.172727,153.811367 846.131344,154.210641 C846.507922,154.364641 846.858852,154.515742 847.184078,154.664055 C847.509305,154.812367 847.790344,154.966367 848.027086,155.126055 C848.263883,155.285742 848.45075,155.459703 848.587742,155.647938 C848.72468,155.836117 848.793148,156.05 848.793148,156.289586 C848.793148,156.466391 848.750328,156.630344 848.664742,156.7815 C848.579156,156.932656 848.449328,157.063797 848.275313,157.175031 C848.101297,157.286266 847.884461,157.373219 847.624859,157.435945 C847.365203,157.498727 847.061414,157.530062 846.713328,157.530062 C846.119914,157.530062 845.532242,157.425992 844.950203,157.217797 C844.368219,157.009656 843.829,156.697391 843.332602,156.281 L843.332602,159.018711 C843.777648,159.246867 844.304016,159.41793 844.911703,159.532008 C845.519391,159.646086 846.159836,159.703125 846.833148,159.703125 C847.489344,159.703125 848.112672,159.640398 848.703242,159.514891 C849.293812,159.389437 849.811648,159.182664 850.256695,158.894625 C850.701742,158.606641 851.054094,158.230172 851.313695,157.765328 C851.573297,157.300484 851.703125,156.725883 851.703125,156.041469 C851.703125,155.545234 851.628969,155.110359 851.480602,154.736789 C851.332234,154.363219 851.118297,154.030992 850.83868,153.740109 C850.559117,153.449227 850.223883,153.188258 849.833031,152.957258 C849.44218,152.726258 849.001398,152.508109 848.510688,152.302813 C848.151227,152.1545 847.828844,152.010508 847.543539,151.870781 C847.258234,151.731 847.01575,151.58843 846.816031,151.443016 C846.616313,151.297547 846.462258,151.143547 846.353867,150.981016 C846.245477,150.81843 846.191227,150.634516 846.191227,150.429164 C846.191227,150.240984 846.239734,150.071289 846.33675,149.920133 C846.433766,149.768977 846.570703,149.639258 846.747562,149.530867 C846.924477,149.422531 847.141258,149.338367 847.398016,149.278484 C847.654828,149.218602 847.940078,149.188688 848.25393,149.188688 C848.482141,149.188688 848.723203,149.205805 848.977117,149.239984 C849.231031,149.274219 849.486367,149.326992 849.74318,149.39825 C849.999937,149.469562 850.249531,149.559414 850.49207,149.66775 C850.734555,149.776141 850.9585,149.901594 851.163906,150.044219 L851.163906,147.486156 C850.747406,147.326469 850.292352,147.208125 849.798797,147.131125 C849.305242,147.054125 848.738898,147.015625 848.099875,147.015625 Z M842.242188,147.289062 L832.453125,147.289062 L832.453125,149.535734 L835.947984,149.535734 L835.947984,159.539062 L838.730156,159.539062 L838.730156,149.535734 L842.242188,149.535734 L842.242188,147.289062 Z" id="typescript"></path>
            </g>
        </g>
    </g>
</svg>