<?xml version="1.0" encoding="UTF-8"?>
<svg width="32px" height="26px" viewBox="0 0 32 26" version="1.1" xmlns="http://www.w3.org/2000/svg" xmlns:xlink="http://www.w3.org/1999/xlink">
    <title>user-flows</title>
    <g id="Page-1" stroke="none" stroke-width="1" fill="none" fill-rule="evenodd">
        <g id="Skills" transform="translate(-160.000000, -1525.000000)" fill="#262324" fill-rule="nonzero">
            <g id="UX-Design" transform="translate(128.000000, 1390.000000)">
                <polygon id="user-flows" points="43.5555556 135 43.5555556 136.444444 43.5555556 143.666667 46.4444444 143.666667 46.4444444 146.555556 34.8888889 146.555556 34.8888889 152.333333 32 152.333333 32 153.777778 32 161 40.6666667 161 40.6666667 152.333333 37.7777778 152.333333 37.7777778 149.444444 46.4444444 149.444444 46.4444444 152.333333 43.5555556 152.333333 43.5555556 153.777778 43.5555556 161 52.2222222 161 52.2222222 152.333333 49.3333333 152.333333 49.3333333 149.444444 58 149.444444 58 152.333333 55.1111111 152.333333 55.1111111 153.777778 55.1111111 161 63.7777778 161 63.7777778 152.333333 60.8888889 152.333333 60.8888889 146.555556 49.3333333 146.555556 49.3333333 143.666667 52.2222222 143.666667 52.2222222 135"></polygon>
            </g>
        </g>
    </g>
</svg>