<?xml version="1.0" encoding="UTF-8"?>
<svg width="37px" height="30px" viewBox="0 0 37 30" version="1.1" xmlns="http://www.w3.org/2000/svg" xmlns:xlink="http://www.w3.org/1999/xlink">
    <title>wireframing</title>
    <g id="Page-1" stroke="none" stroke-width="1" fill="none" fill-rule="evenodd">
        <g id="Skills" transform="translate(-554.000000, -1523.000000)" fill="#262324" fill-rule="nonzero">
            <g id="UX-Design" transform="translate(128.000000, 1390.000000)">
                <path d="M426,133 L426,159.666667 L437.666667,159.666667 L437.666667,163 L451,163 L451,159.666667 L462.666667,159.666667 L462.666667,133 L426,133 Z M429.333333,136.333333 L459.333333,136.333333 L459.333333,156.333333 L429.333333,156.333333 L429.333333,136.333333 Z M432.666667,139.666667 L432.666667,144.666667 L442.666667,144.666667 L442.666667,139.666667 L432.666667,139.666667 Z M446,139.666667 L446,144.666667 L456,144.666667 L456,139.666667 L446,139.666667 Z M432.666667,148 L432.666667,153 L442.666667,153 L442.666667,148 L432.666667,148 Z M446,148 L446,153 L456,153 L456,148 L446,148 Z" id="wireframing"></path>
            </g>
        </g>
    </g>
</svg>